<?xml version="1.0" encoding="UTF-8" standalone="no"?>
<!-- Created with Inkscape (http://www.inkscape.org/) -->

<svg
   width="167.98439mm"
   height="48.07938mm"
   viewBox="0 0 167.98439 48.07938"
   version="1.1"
   id="svg1"
   xml:space="preserve"
   xmlns="http://www.w3.org/2000/svg"
   xmlns:svg="http://www.w3.org/2000/svg"><defs
     id="defs1" /><g
     id="layer1"
     transform="translate(-194.24917,-253.84834)"><g
       id="g34"
       transform="matrix(0.68697371,0,0,0.68697371,183.98562,245.6402)"><path
         style="fill:none;stroke:#b8b8b8;stroke-width:1.872;stroke-dasharray:none;stroke-opacity:1"
         d="m 246.61993,44.517366 v 4.491402 17.277747 c 0,3.878 -5.061,7 -7,7 H 80.287911 c -4.84878,0 -6.881348,-2.770058 -6.881348,-2.770058"
         id="path31" /><path
         style="font-weight:bold;font-size:20.4611px;font-family:Montserrat;-inkscape-font-specification:'Montserrat Bold';letter-spacing:-0.703792px;word-spacing:0px;fill:#ffffff;fill-opacity:1;stroke-width:0.264583"
         d="m 93.155549,42.113788 v -14.32277 h 2.741787 l 6.097404,10.10779 h -1.45273 l 5.9951,-10.10779 h 2.72132 l 0.0409,14.32277 h -3.11008 l -0.0205,-9.55533 h 0.57291 l -4.7879,8.04121 h -1.49366 l -4.890202,-8.04121 h 0.695677 v 9.55533 z m 18.836551,0 v -14.32277 h 3.3147 v 14.32277 z m 12.8619,0.24554 c -1.10489,0 -2.13477,-0.17733 -3.08962,-0.53199 -0.94121,-0.3683 -1.75966,-0.88665 -2.45533,-1.55504 -0.69568,-0.6684 -1.24131,-1.45274 -1.63689,-2.35303 -0.38194,-0.90029 -0.57291,-1.88924 -0.57291,-2.96686 0,-1.07762 0.19097,-2.06657 0.57291,-2.96686 0.39558,-0.90029 0.94121,-1.68463 1.63689,-2.35303 0.70931,-0.66839 1.53458,-1.17992 2.47579,-1.53458 0.94121,-0.3683 1.97109,-0.55245 3.08963,-0.55245 1.2413,0 2.35984,0.21825 3.35562,0.65476 1.00941,0.42286 1.85513,1.05033 2.53717,1.88242 l -2.12795,1.96426 c -0.49107,-0.55927 -1.0367,-0.97531 -1.63689,-1.24812 -0.60019,-0.28646 -1.25495,-0.42969 -1.96427,-0.42969 -0.66839,0 -1.28222,0.10913 -1.84149,0.32738 -0.55927,0.21825 -1.04352,0.53199 -1.45274,0.94121 -0.40922,0.40922 -0.72978,0.89347 -0.96167,1.45274 -0.21826,0.55927 -0.32738,1.17992 -0.32738,1.86196 0,0.68203 0.10912,1.30269 0.32738,1.86196 0.23189,0.55927 0.55245,1.04351 0.96167,1.45274 0.40922,0.40922 0.89347,0.72296 1.45274,0.94121 0.55927,0.21825 1.1731,0.32738 1.84149,0.32738 0.70932,0 1.36408,-0.13641 1.96427,-0.40923 0.60019,-0.28645 1.14582,-0.71614 1.63689,-1.28905 l 2.12795,1.96427 c -0.68204,0.83209 -1.52776,1.46638 -2.53717,1.90288 -0.99578,0.43651 -2.12114,0.65476 -3.37609,0.65476 z m 17.07693,-0.24554 v -14.32277 h 3.31469 v 14.32277 z m -9.82133,0 v -14.32277 h 3.3147 v 14.32277 z m 3.06916,-5.87233 v -2.80317 h 6.9977 v 2.80317 z m 10.87721,5.87233 6.38386,-14.32277 h 3.27377 l 6.40433,14.32277 h -3.47839 l -5.23804,-12.64495 h 1.30951 l -5.2585,12.64495 z m 3.19193,-3.06916 0.87982,-2.51672 h 7.366 l 0.90029,2.51672 z m 13.65992,3.06916 v -14.32277 h 10.82392 v 2.65995 h -7.52969 v 9.00288 h 7.79568 v 2.65994 z m 3.0487,-5.97464 v -2.5781 h 6.89539 v 2.5781 z m 9.97689,5.97464 v -14.32277 h 3.3147 v 11.62191 h 7.18184 v 2.70086 z m 19.38091,0.24554 c -0.96849,0 -1.86196,-0.17733 -2.6804,-0.53199 -0.80481,-0.3683 -1.46638,-0.88665 -1.98473,-1.55504 l 1.8415,-2.2098 c 0.39558,0.51835 0.81162,0.91393 1.24813,1.18674 0.4365,0.25917 0.9071,0.38876 1.41181,0.38876 1.35043,0 2.02565,-0.79116 2.02565,-2.37349 v -6.81354 c 0,-1.38253 0.009,1.13246 0.009,-2.65995 h 3.28559 v 9.28934 c 0,1.7733 -0.4365,3.09645 -1.30951,3.96946 -0.87301,0.87301 -2.15524,1.30951 -3.84669,1.30951 z m 5.53686,-0.24554 6.38386,-14.32277 h 3.27378 l 6.40432,14.32277 h -3.47838 l -5.23804,-12.64495 h 1.30951 l -5.25851,12.64495 z m 3.19193,-3.06916 0.87983,-2.51672 h 7.366 l 0.90028,2.51672 z m 13.65992,3.06916 v -14.32277 h 6.11787 c 1.99155,0 3.53977,0.46379 4.64467,1.39136 1.1049,0.91393 1.65735,2.18251 1.65735,3.80576 0,1.06398 -0.25235,1.98473 -0.75706,2.76225 -0.50471,0.76388 -1.22085,1.35043 -2.14842,1.75966 -0.92757,0.40922 -2.03247,0.61383 -3.3147,0.61383 h -4.35821 l 1.4732,-1.45274 v 5.44265 z m 9.10519,0 -3.58069,-5.19711 h 3.53977 l 3.62161,5.19711 z m -5.79049,-5.07435 -1.4732,-1.55504 h 4.17406 c 1.02306,0 1.78694,-0.21825 2.29165,-0.65476 0.50471,-0.45014 0.75706,-1.06397 0.75706,-1.8415 0,-0.79116 -0.25235,-1.40499 -0.75706,-1.84149 -0.50471,-0.43651 -1.26859,-0.65476 -2.29165,-0.65476 h -4.17406 l 1.4732,-1.5755 z m 11.02043,5.07435 v -14.32277 h 10.82392 v 2.65995 h -7.52968 v 9.00288 h 7.79568 v 2.65994 z m 3.0487,-5.97464 v -2.5781 h 6.89539 v 2.5781 z m 9.97689,5.97464 v -14.32277 h 6.50663 c 1.55504,0 2.92593,0.3001 4.11268,0.90029 1.18675,0.58655 2.11432,1.41182 2.78271,2.4758 0.66839,1.06397 1.00259,2.32574 1.00259,3.7853 0,1.44592 -0.3342,2.70769 -1.00259,3.7853 -0.66839,1.06398 -1.59596,1.89607 -2.78271,2.49626 -1.18675,0.58655 -2.55764,0.87982 -4.11268,0.87982 z m 3.3147,-2.72132 h 3.02824 c 0.95485,0 1.78012,-0.17733 2.47579,-0.53199 0.70932,-0.3683 1.25495,-0.88665 1.63689,-1.55504 0.39558,-0.6684 0.59337,-1.45274 0.59337,-2.35303 0,-0.91393 -0.19779,-1.69827 -0.59337,-2.35303 -0.38194,-0.66839 -0.92757,-1.17992 -1.63689,-1.53458 -0.69567,-0.3683 -1.52094,-0.55245 -2.47579,-0.55245 h -3.02824 z"
         id="path32" /><path
         style="font-weight:500;font-size:15.875px;font-family:Montserrat;-inkscape-font-specification:'Montserrat Medium';letter-spacing:2.16694px;word-spacing:0px;fill:#b8b8b8;fill-opacity:1;stroke-width:0.264583"
         d="m 97.903227,61.140392 q -1.27,0 -2.428875,-0.381 -1.158875,-0.39688 -1.825625,-1.016 l 0.587375,-1.23825 q 0.635,0.55562 1.61925,0.92075 0.98425,0.36512 2.047875,0.36512 0.968375,0 1.571625,-0.22225 0.603248,-0.22225 0.888998,-0.60325 0.28575,-0.39687 0.28575,-0.889 0,-0.5715 -0.381,-0.92075 -0.365123,-0.34925 -0.968373,-0.55562 -0.587375,-0.22225 -1.30175,-0.381 -0.714375,-0.15875 -1.444625,-0.36513 -0.714375,-0.22225 -1.317625,-0.55562 -0.587375,-0.33338 -0.9525,-0.889 -0.365125,-0.5715 -0.365125,-1.4605 0,-0.85725 0.4445,-1.57163 0.460375,-0.73025 1.397,-1.15887 0.9525,-0.4445 2.413,-0.4445 0.968375,0 1.920878,0.254 0.9525,0.254 1.651,0.73025 l -0.52388,1.27 q -0.71437,-0.47625 -1.508123,-0.68263 -0.79375,-0.22225 -1.539875,-0.22225 -0.936625,0 -1.539875,0.23813 -0.60325,0.23812 -0.889,0.635 -0.269875,0.39687 -0.269875,0.889 0,0.58737 0.365125,0.93662 0.381,0.34925 0.968375,0.55563 0.60325,0.20637 1.317625,0.381 0.714375,0.15875 1.42875,0.36512 0.730253,0.20638 1.317623,0.53975 0.60325,0.33338 0.96838,0.889 0.36513,0.55563 0.36513,1.42875 0,0.84138 -0.46038,1.57163 -0.46038,0.71437 -1.42875,1.15887 -0.952503,0.42863 -2.413003,0.42863 z m 13.803323,0 q -1.27,0 -2.36537,-0.42863 -1.0795,-0.42862 -1.87325,-1.19062 -0.79375,-0.77788 -1.23825,-1.80975 -0.4445,-1.03188 -0.4445,-2.25425 0,-1.22238 0.4445,-2.25425 0.4445,-1.03188 1.23825,-1.79388 0.79375,-0.77787 1.87325,-1.2065 1.0795,-0.42862 2.36537,-0.42862 1.27,0 2.33363,0.42862 1.0795,0.41275 1.87325,1.19063 0.80962,0.762 1.23825,1.79387 0.4445,1.03188 0.4445,2.27013 0,1.23825 -0.4445,2.27012 -0.42863,1.03188 -1.23825,1.80975 -0.79375,0.762 -1.87325,1.19063 -1.06363,0.41275 -2.33363,0.41275 z m 0,-1.41288 q 0.92075,0 1.69863,-0.3175 0.79375,-0.3175 1.36525,-0.889 0.58737,-0.58737 0.90487,-1.36525 0.33338,-0.77787 0.33338,-1.69862 0,-0.92075 -0.33338,-1.69863 -0.3175,-0.77787 -0.90487,-1.34937 -0.5715,-0.58738 -1.36525,-0.90488 -0.77788,-0.3175 -1.69863,-0.3175 -0.93662,0 -1.73037,0.3175 -0.77788,0.3175 -1.36525,0.90488 -0.58738,0.5715 -0.92075,1.34937 -0.3175,0.77788 -0.3175,1.69863 0,0.92075 0.3175,1.69862 0.33337,0.77788 0.92075,1.36525 0.58737,0.5715 1.36525,0.889 0.79375,0.3175 1.73037,0.3175 z m 10.48544,1.28588 v -11.1125 h 7.84225 v 1.38112 h -6.25475 v 9.73138 z m 1.42875,-4.49263 v -1.36525 h 5.73088 v 1.36525 z m 13.10481,4.49263 v -9.73138 h -3.81 v -1.38112 h 9.19162 v 1.38112 h -3.81 v 9.73138 z m 11.70782,0 -3.71475,-11.1125 h 1.63513 l 3.41312,10.25525 h -0.8255 l 3.54013,-10.25525 h 1.4605 l 3.46075,10.25525 H 156.609 l 3.46075,-10.25525 h 1.50812 l -3.71475,11.1125 h -1.66687 l -3.2385,-9.50913 h 0.42862 l -3.25437,9.50913 z m 15.21617,0 5.03237,-11.1125 h 1.57163 l 5.04825,11.1125 h -1.66688 l -4.49262,-10.2235 h 0.635 l -4.49263,10.2235 z m 2.14312,-2.77813 0.42863,-1.27 h 6.25475 l 0.46037,1.27 z m 13.32707,2.77813 v -11.1125 h 4.33388 q 2.159,0 3.39725,1.03187 1.23825,1.016 1.23825,2.84163 0,1.2065 -0.55563,2.07962 -0.55562,0.85725 -1.5875,1.31763 -1.03187,0.46037 -2.49237,0.46037 h -3.46075 l 0.71437,-0.73025 v 4.11163 z m 7.4295,0 -2.82575,-4.03225 h 1.69863 l 2.8575,4.03225 z m -5.842,-3.95288 -0.71437,-0.77787 h 3.41312 q 1.524,0 2.30188,-0.65088 0.79375,-0.66675 0.79375,-1.85737 0,-1.19063 -0.79375,-1.8415 -0.77788,-0.65088 -2.30188,-0.65088 h -3.41312 l 0.71437,-0.79375 z m 12.12055,3.95288 v -11.1125 h 7.84225 v 1.38112 h -6.25475 v 8.35025 h 6.477 v 1.38113 z m 1.44463,-4.96888 v -1.34937 h 5.715 v 1.34937 z"
         id="path33" /><path
         id="path34"
         class="st0"
         d="m 150.43051,125.57603 c -7.49554,0 -14.01598,5.16404 -15.74346,12.45487 l -11.28441,47.82546 c -12.04572,3.4826 -23.554654,8.19054 -34.318585,14.1443 L 47.361923,174.19967 c -6.380448,-3.92916 -14.63684,-2.97372 -19.940204,2.32964 l -27.63142758,27.62297 c -5.29472602,5.30336 -6.25897702,13.56753 -2.32118602,19.9402 L 23.261634,265.82307 C 17.317376,276.587 12.600631,288.09417 9.1258053,300.13038 l -47.8339303,11.28441 c -7.289966,1.73526 -12.452052,8.24775 -12.452052,15.75192 v 39.06531 c 0,7.49553 5.161222,14.02266 12.452052,15.74064 l 47.8339303,11.2844 c 3.4825997,12.04572 8.1915707,23.54442 14.1358287,34.29885 l -25.8009896,41.74188 c -3.929154,6.38995 -2.970895,14.64443 2.33246802,19.94866 L 27.413258,516.86942 c 5.303364,5.30336 13.567535,6.26761 19.940209,2.32119 l 41.739052,-25.801 c 10.764795,5.94426 22.273041,10.66187 34.310121,14.13583 l 11.28441,47.81983 c 1.72748,7.30983 8.24792,12.46615 15.74346,12.46615 h 39.07096 c 7.49467,0 14.01597,-5.15632 15.74345,-12.46615 l 11.28441,-47.81983 c 12.03794,-3.4731 23.54551,-8.19157 34.30166,-14.13583 l 41.72777,25.79253 c 6.38995,3.94729 14.63685,2.97936 19.94021,-2.324 l 27.63143,-27.62861 c 5.29473,-5.29386 6.26002,-13.55222 2.31273,-19.94303 L 316.6506,427.56719 c 5.95376,-10.75529 10.66451,-22.26355 14.14711,-34.31013 l 47.81982,-11.2844 c 7.30984,-1.72834 12.4577,-8.23733 12.4577,-15.74064 v -39.07659 c 0,-7.48517 -5.15633,-14.00556 -12.46616,-15.73218 l -47.8029,-11.28158 c -3.4826,-12.04572 -8.2009,-23.55467 -14.14429,-34.3186 l 25.78125,-41.72212 c 3.94729,-6.38909 2.98217,-14.63684 -2.32119,-19.94021 l -27.63143,-27.63143 c -5.29387,-5.29386 -13.5418,-6.26002 -19.93175,-2.31272 l -41.71084,25.78407 c -10.76393,-5.94426 -22.27201,-10.66083 -34.31859,-14.1443 L 205.24492,138.0309 c -1.72748,-7.29083 -8.24964,-12.45487 -15.74345,-12.45487 z M 112.5554,263.64855 h 114.80425 c 23.18463,0 43.14617,16.3648 47.69291,39.09916 l 16.4965,82.49378 v 15.7773 c 0,12.36242 -7.91046,23.33862 -19.63841,27.24786 -10.32039,3.43988 -21.69899,0.75223 -29.39137,-6.94099 l -36.08415,-36.08417 h -72.95802 l -36.084167,36.08698 c -7.692031,7.69201 -19.07051,10.37806 -29.391357,6.93818 C 56.27388,424.35741 48.363161,413.38121 48.363161,401.01879 v -15.7773 l 16.499326,-82.49378 c 4.547609,-22.73423 24.50864,-39.09916 47.692913,-39.09916 z m -2.85706,40.0863 v 17.20442 H 92.496738 v 18.86845 h 17.201602 v 17.2016 h 18.86846 v -17.2016 h 17.20441 V 320.93927 H 128.5668 v -17.20442 z m 97.79162,7.73071 c -6.05361,0 -10.95442,4.90226 -10.95442,10.9516 0,6.05361 4.90081,10.9516 10.95442,10.9516 6.04933,0 10.95442,-4.89799 10.95442,-10.9516 -5.5e-4,-6.04934 -4.90563,-10.9516 -10.95442,-10.9516 z m 26.46096,26.46378 c -6.04399,0 -10.94596,4.90226 -10.94596,10.9516 0,6.05361 4.90197,10.95724 10.94596,10.95724 6.05415,0 10.95442,-4.90363 10.95442,-10.95724 0,-6.04934 -4.9008,-10.9516 -10.95442,-10.9516 z"
         style="display:inline;fill:#97b7dc;fill-opacity:1;stroke-width:0.86374"
         transform="matrix(0.15825788,0,0,0.15825788,23.036737,-7.9251215)" /></g></g><style
     type="text/css"
     id="style1">
	.st0{fill:#000000;}
</style><style
     type="text/css"
     id="style1-4">
	.st0{fill:#000000;}
</style></svg>
