{
	"asset":{
		"generator":"Khronos glTF Blender I/O v3.6.27",
		"version":"2.0"
	},
	"scene":0,
	"scenes":[
		{
			"extras":{
				"bsurfaces":{
					"SURFSK_mesh":{}
				},
				"automirror":{
					"axis":3,
					"orientation":1
				},
				"SimpleBake_Props":{
					"presets_show":0,
					"presets_list":[
						{
							"name":"AO"
						},
						{
							"name":"PBR"
						}
					],
					"presets_list_index":1,
					"preset_name":"PBR",
					"bake_objects_show":1,
					"first_texture_show":0,
					"objects_list":[
						{
							"obj_point":{
								"name":"Crate.001",
								"type":"Object"
							},
							"name":"Crate.001"
						}
					],
					"merged_bake":0,
					"pbr_settings_show":1,
					"selected_metal":1,
					"selected_normal":1,
					"normal_format_switch":0,
					"selected_rough":1,
					"specials_show":1,
					"textures_show":1,
					"imgwidth":2048,
					"outputwidth":2048,
					"imgheight":2048,
					"outputheight":2048,
					"export_show":1,
					"save_bakes_external":1,
					"everything_16bit":0,
					"uv_show":1,
					"other_show":1,
					"copy_and_apply":1,
					"hide_source_objects":1,
					"hide_cage_object":1,
					"apply_bakes_to_original":0,
					"del_cptex_components":0,
					"total_bake_images_number":4,
					"targetobj":{},
					"targetobj_cycles":{},
					"fg_status_message":"[11:41:20] - Restoring exception handler",
					"current_bake_image_number":4,
					"percent_complete":100,
					"selected_col":1,
					"apply_col_man_to_col":0,
					"selected_displacement":0,
					"uv_advanced_packing_show":0,
					"isolate_objects":0
				}
			},
			"name":"Scene",
			"nodes":[
				0
			]
		}
	],
	"nodes":[
		{
			"extras":{
				"BoolToolRoot":true,
				"SB_uv_used_for_bake":"UVMap",
				"SB_copy_and_apply_from":"Crate.001",
				"SB_bake_operation_id":"0f3b0c7d-7521-4c15-9d6e-3a0ab4a1c45d"
			},
			"mesh":0,
			"name":"Crate_Baked",
			"scale":[
				0.2231919765472412,
				0.2231919765472412,
				0.2231919765472412
			]
		}
	],
	"materials":[
		{
			"doubleSided":true,
			"extras":{
				"lp":{
					"uid":"0ec4eb3f34"
				},
				"DM":{},
				"SB_baked_orig_objects":[
					"Crate.001"
				],
				"SB_bake_operation_id":"0f3b0c7d-7521-4c15-9d6e-3a0ab4a1c45d"
			},
			"name":"Crate_Baked",
			"normalTexture":{
				"index":0
			},
			"pbrMetallicRoughness":{
				"baseColorTexture":{
					"index":1
				},
				"metallicRoughnessTexture":{
					"index":2
				}
			}
		}
	],
	"meshes":[
		{
			"name":"Crate_Baked",
			"primitives":[
				{
					"attributes":{
						"POSITION":0,
						"NORMAL":1,
						"TEXCOORD_0":2
					},
					"indices":3,
					"material":0
				}
			]
		}
	],
	"textures":[
		{
			"sampler":0,
			"source":0
		},
		{
			"sampler":0,
			"source":1
		},
		{
			"sampler":0,
			"source":2
		}
	],
	"images":[
		{
			"mimeType":"image/png",
			"name":"Crate",
			"uri":"Crate.png"
		},
		{
			"mimeType":"image/png",
			"name":"Crate",
			"uri":"Crate-1.png"
		},
		{
			"mimeType":"image/png",
			"name":"Crate-Crate",
			"uri":"Crate-Crate.png"
		}
	],
	"accessors":[
		{
			"bufferView":0,
			"componentType":5126,
			"count":8271,
			"max":[
				4.490944862365723,
				2.015662670135498,
				2.230004072189331
			],
			"min":[
				-4.685766220092773,
				-1.9795771837234497,
				-2.2298662662506104
			],
			"type":"VEC3"
		},
		{
			"bufferView":1,
			"componentType":5126,
			"count":8271,
			"type":"VEC3"
		},
		{
			"bufferView":2,
			"componentType":5126,
			"count":8271,
			"type":"VEC2"
		},
		{
			"bufferView":3,
			"componentType":5123,
			"count":29484,
			"type":"SCALAR"
		}
	],
	"bufferViews":[
		{
			"buffer":0,
			"byteLength":99252,
			"byteOffset":0,
			"target":34962
		},
		{
			"buffer":0,
			"byteLength":99252,
			"byteOffset":99252,
			"target":34962
		},
		{
			"buffer":0,
			"byteLength":66168,
			"byteOffset":198504,
			"target":34962
		},
		{
			"buffer":0,
			"byteLength":58968,
			"byteOffset":264672,
			"target":34963
		}
	],
	"samplers":[
		{
			"magFilter":9729,
			"minFilter":9987
		}
	],
	"buffers":[
		{
			"byteLength":323640,
			"uri":"Case.bin"
		}
	]
}
