{
	"asset":{
		"generator":"Khronos glTF Blender I/O v3.6.27",
		"version":"2.0"
	},
	"scene":0,
	"scenes":[
		{
			"name":"Scene",
			"nodes":[
				0
			]
		}
	],
	"nodes":[
		{
			"mesh":0,
			"name":"CommHead",
			"rotation":[
				0,
				0.33475571870803833,
				0,
				0.9423049688339233
			]
		}
	],
	"materials":[
		{
			"doubleSided":true,
			"name":"CommHead",
			"normalTexture":{
				"index":0
			},
			"pbrMetallicRoughness":{
				"baseColorTexture":{
					"index":1
				},
				"metallicRoughnessTexture":{
					"index":2
				}
			}
		},
		{
			"doubleSided":true,
			"name":"CommBase",
			"normalTexture":{
				"index":3
			},
			"occlusionTexture":{
				"index":4
			},
			"pbrMetallicRoughness":{
				"baseColorTexture":{
					"index":5
				},
				"metallicRoughnessTexture":{
					"index":4
				}
			}
		}
	],
	"meshes":[
		{
			"name":"CommHead",
			"primitives":[
				{
					"attributes":{
						"COLOR_0":0,
						"POSITION":1,
						"NORMAL":2,
						"TEXCOORD_0":3
					},
					"indices":4,
					"material":0
				},
				{
					"attributes":{
						"COLOR_0":5,
						"POSITION":6,
						"NORMAL":7,
						"TEXCOORD_0":8
					},
					"indices":9,
					"material":1
				}
			]
		}
	],
	"textures":[
		{
			"sampler":0,
			"source":0
		},
		{
			"sampler":0,
			"source":1
		},
		{
			"sampler":0,
			"source":2
		},
		{
			"sampler":0,
			"source":3
		},
		{
			"sampler":0,
			"source":4
		},
		{
			"sampler":0,
			"source":5
		}
	],
	"images":[
		{
			"mimeType":"image/png",
			"name":"comms_tower_CommHead_Normal",
			"uri":"comms_tower_CommHead_Normal.png"
		},
		{
			"mimeType":"image/png",
			"name":"comms_tower_CommHead_BaseColor",
			"uri":"comms_tower_CommHead_BaseColor.png"
		},
		{
			"mimeType":"image/png",
			"name":"comms_tower_CommHead_AORoughMetal",
			"uri":"comms_tower_CommHead_AORoughMetal.png"
		},
		{
			"mimeType":"image/png",
			"name":"comms_tower_CommBase_Normal",
			"uri":"comms_tower_CommBase_Normal.png"
		},
		{
			"mimeType":"image/png",
			"name":"comms_tower_CommBase_AORoughMetal",
			"uri":"comms_tower_CommBase_AORoughMetal.png"
		},
		{
			"mimeType":"image/png",
			"name":"comms_tower_CommBase_BaseColor",
			"uri":"comms_tower_CommBase_BaseColor.png"
		}
	],
	"accessors":[
		{
			"bufferView":0,
			"componentType":5123,
			"count":1939,
			"normalized":true,
			"type":"VEC4"
		},
		{
			"bufferView":1,
			"componentType":5126,
			"count":1939,
			"max":[
				0.2492799460887909,
				0.33392205834388733,
				0.2842469811439514
			],
			"min":[
				-0.1934833526611328,
				-0.1602938026189804,
				-0.19182029366493225
			],
			"type":"VEC3"
		},
		{
			"bufferView":2,
			"componentType":5126,
			"count":1939,
			"type":"VEC3"
		},
		{
			"bufferView":3,
			"componentType":5126,
			"count":1939,
			"type":"VEC2"
		},
		{
			"bufferView":4,
			"componentType":5123,
			"count":5940,
			"type":"SCALAR"
		},
		{
			"bufferView":5,
			"componentType":5123,
			"count":1699,
			"normalized":true,
			"type":"VEC4"
		},
		{
			"bufferView":6,
			"componentType":5126,
			"count":1699,
			"max":[
				0.15702185034751892,
				0.06907841563224792,
				0.17856095731258392
			],
			"min":[
				-0.19470185041427612,
				-1.2813273668289185,
				-0.17316275835037231
			],
			"type":"VEC3"
		},
		{
			"bufferView":7,
			"componentType":5126,
			"count":1699,
			"type":"VEC3"
		},
		{
			"bufferView":8,
			"componentType":5126,
			"count":1699,
			"type":"VEC2"
		},
		{
			"bufferView":9,
			"componentType":5123,
			"count":5334,
			"type":"SCALAR"
		}
	],
	"bufferViews":[
		{
			"buffer":0,
			"byteLength":15512,
			"byteOffset":0,
			"target":34962
		},
		{
			"buffer":0,
			"byteLength":23268,
			"byteOffset":15512,
			"target":34962
		},
		{
			"buffer":0,
			"byteLength":23268,
			"byteOffset":38780,
			"target":34962
		},
		{
			"buffer":0,
			"byteLength":15512,
			"byteOffset":62048,
			"target":34962
		},
		{
			"buffer":0,
			"byteLength":11880,
			"byteOffset":77560,
			"target":34963
		},
		{
			"buffer":0,
			"byteLength":13592,
			"byteOffset":89440,
			"target":34962
		},
		{
			"buffer":0,
			"byteLength":20388,
			"byteOffset":103032,
			"target":34962
		},
		{
			"buffer":0,
			"byteLength":20388,
			"byteOffset":123420,
			"target":34962
		},
		{
			"buffer":0,
			"byteLength":13592,
			"byteOffset":143808,
			"target":34962
		},
		{
			"buffer":0,
			"byteLength":10668,
			"byteOffset":157400,
			"target":34963
		}
	],
	"samplers":[
		{
			"magFilter":9729,
			"minFilter":9987
		}
	],
	"buffers":[
		{
			"byteLength":168068,
			"uri":"CommsTower.bin"
		}
	]
}
