{
	"asset":{
		"generator":"Khronos glTF Blender I/O v3.6.27",
		"version":"2.0"
	},
	"scene":0,
	"scenes":[
		{
			"extras":{
				"bsurfaces":{
					"SURFSK_mesh":{}
				},
				"SimpleBake_Props":{
					"bake_objects_show":1,
					"first_texture_show":0,
					"presets_show":1,
					"presets_list":[
						{
							"name":"AO"
						},
						{
							"name":"PBR"
						}
					],
					"presets_list_index":1,
					"preset_name":"PBR",
					"objects_list":[
						{
							"obj_point":{
								"name":"Generator",
								"type":"Object"
							},
							"name":"Generator"
						}
					],
					"pbr_settings_show":1,
					"selected_metal":1,
					"selected_rough":1,
					"selected_normal":1,
					"specials_show":0,
					"textures_show":1,
					"export_show":1,
					"save_bakes_external":1,
					"export_folder_per_object":0,
					"everything_16bit":0,
					"uv_show":0,
					"other_show":1,
					"copy_and_apply":1,
					"hide_source_objects":1,
					"hide_cage_object":1,
					"apply_bakes_to_original":0,
					"total_bake_images_number":4,
					"fg_status_message":"[20:45:26] - Time taken - 32 seconds (0 minutes, 32 seconds)",
					"targetobj":{},
					"targetobj_cycles":{},
					"current_bake_image_number":4,
					"percent_complete":100,
					"isolate_objects":0,
					"showtips":1,
					"imgwidth":2048,
					"outputwidth":2048,
					"imgheight":2048,
					"outputheight":2048
				}
			},
			"name":"Scene",
			"nodes":[
				0
			]
		}
	],
	"nodes":[
		{
			"extras":{
				"BoolToolRoot":true,
				"SB_uv_used_for_bake":"UVMap",
				"SB_copy_and_apply_from":"Generator",
				"SB_bake_operation_id":"4a4214f4-0933-428b-9c66-ee7bc6c52284"
			},
			"mesh":0,
			"name":"Generator_Baked",
			"rotation":[
				0,
				-1,
				0,
				1.6292068494294654e-07
			]
		}
	],
	"materials":[
		{
			"doubleSided":true,
			"extras":{
				"lp":{
					"uid":"0ec4eb3f34"
				},
				"SB_baked_orig_objects":[
					"Generator"
				],
				"SB_bake_operation_id":"4a4214f4-0933-428b-9c66-ee7bc6c52284"
			},
			"name":"Generator_Baked",
			"normalTexture":{
				"index":0
			},
			"pbrMetallicRoughness":{
				"baseColorTexture":{
					"index":1
				},
				"metallicRoughnessTexture":{
					"index":2
				}
			}
		}
	],
	"meshes":[
		{
			"name":"GeneratorMesh.003",
			"primitives":[
				{
					"attributes":{
						"POSITION":0,
						"NORMAL":1,
						"TEXCOORD_0":2
					},
					"indices":3,
					"material":0
				}
			]
		}
	],
	"textures":[
		{
			"sampler":0,
			"source":0
		},
		{
			"sampler":0,
			"source":1
		},
		{
			"sampler":0,
			"source":2
		}
	],
	"images":[
		{
			"mimeType":"image/png",
			"name":"Generator_Bake1_PBR_Normal",
			"uri":"Generator_Bake1_PBR_Normal.png"
		},
		{
			"mimeType":"image/png",
			"name":"Generator_Bake1_PBR_Diffuse",
			"uri":"Generator_Bake1_PBR_Diffuse.png"
		},
		{
			"mimeType":"image/png",
			"name":"Generator_Bake1_PBR_Metalness-Generator_Bake1_PBR_Roughness",
			"uri":"Generator_Bake1_PBR_Metalness-Generator_Bake1_PBR_Roughness.png"
		}
	],
	"accessors":[
		{
			"bufferView":0,
			"componentType":5126,
			"count":15043,
			"max":[
				0.9746667146682739,
				0.5312008857727051,
				0.6786398887634277
			],
			"min":[
				-0.9238725900650024,
				-0.6330216526985168,
				-0.6786398887634277
			],
			"type":"VEC3"
		},
		{
			"bufferView":1,
			"componentType":5126,
			"count":15043,
			"type":"VEC3"
		},
		{
			"bufferView":2,
			"componentType":5126,
			"count":15043,
			"type":"VEC2"
		},
		{
			"bufferView":3,
			"componentType":5123,
			"count":65085,
			"type":"SCALAR"
		}
	],
	"bufferViews":[
		{
			"buffer":0,
			"byteLength":180516,
			"byteOffset":0,
			"target":34962
		},
		{
			"buffer":0,
			"byteLength":180516,
			"byteOffset":180516,
			"target":34962
		},
		{
			"buffer":0,
			"byteLength":120344,
			"byteOffset":361032,
			"target":34962
		},
		{
			"buffer":0,
			"byteLength":130170,
			"byteOffset":481376,
			"target":34963
		}
	],
	"samplers":[
		{
			"magFilter":9729,
			"minFilter":9987
		}
	],
	"buffers":[
		{
			"byteLength":611548,
			"uri":"Generator.bin"
		}
	]
}
