{
	"asset":{
		"generator":"Khronos glTF Blender I/O v3.6.27",
		"version":"2.0"
	},
	"scene":0,
	"scenes":[
		{
			"extras":{
				"SimpleBake_Props":{
					"presets_show":1,
					"presets_list":[
						{
							"name":"AO"
						},
						{
							"name":"PBR"
						}
					],
					"presets_list_index":1,
					"preset_name":"PBR",
					"bake_objects_show":1,
					"first_texture_show":0,
					"objects_list":[
						{
							"obj_point":{
								"name":"Head",
								"type":"Object"
							},
							"name":"Head"
						}
					],
					"merged_bake":0,
					"pbr_settings_show":1,
					"selected_metal":1,
					"selected_rough":1,
					"selected_normal":1,
					"specials_show":1,
					"textures_show":1,
					"imgwidth":4096,
					"outputwidth":2048,
					"imgheight":4096,
					"outputheight":2048,
					"export_show":1,
					"save_bakes_external":1,
					"everything_16bit":0,
					"uv_show":1,
					"other_show":1,
					"channelpacking_show":1,
					"total_bake_images_number":4,
					"targetobj":{},
					"targetobj_cycles":{},
					"fg_status_message":"[14:48:37] - Restoring exception handler",
					"current_bake_image_number":4,
					"percent_complete":100,
					"copy_and_apply":1,
					"hide_source_objects":1,
					"hide_cage_object":1,
					"apply_bakes_to_original":0,
					"del_cptex_components":0,
					"objects_list_index":0
				}
			},
			"name":"Scene",
			"nodes":[
				0
			]
		}
	],
	"nodes":[
		{
			"extras":{
				"SB_uv_used_for_bake":"UVMap",
				"SB_copy_and_apply_from":"Head",
				"SB_bake_operation_id":"67e64770-7993-4f04-aad4-b96f333f6074"
			},
			"mesh":0,
			"name":"Head_Baked",
			"translation":[
				-0.0004731118679046631,
				-0.8162075281143188,
				0.0292490366846323
			]
		}
	],
	"materials":[
		{
			"doubleSided":true,
			"extras":{
				"lp":{
					"uid":"0ec4eb3f34"
				},
				"DM":{},
				"SB_baked_orig_objects":[
					"Head"
				],
				"SB_bake_operation_id":"67e64770-7993-4f04-aad4-b96f333f6074"
			},
			"name":"Head_Baked",
			"normalTexture":{
				"index":0
			},
			"pbrMetallicRoughness":{
				"baseColorTexture":{
					"index":1
				},
				"metallicRoughnessTexture":{
					"index":2
				}
			}
		}
	],
	"meshes":[
		{
			"name":"Cylinder.002",
			"primitives":[
				{
					"attributes":{
						"POSITION":0,
						"NORMAL":1,
						"TEXCOORD_0":2
					},
					"indices":3,
					"material":0
				}
			]
		}
	],
	"textures":[
		{
			"sampler":0,
			"source":0
		},
		{
			"sampler":0,
			"source":1
		},
		{
			"sampler":0,
			"source":2
		}
	],
	"images":[
		{
			"mimeType":"image/png",
			"name":"Head_Bake1_PBR_Normal",
			"uri":"Head_Bake1_PBR_Normal.png"
		},
		{
			"mimeType":"image/png",
			"name":"Head_Bake1_PBR_Diffuse",
			"uri":"Head_Bake1_PBR_Diffuse.png"
		},
		{
			"mimeType":"image/png",
			"name":"Head_Bake1_PBR_Metalness-Head_Bake1_PBR_Roughness",
			"uri":"Head_Bake1_PBR_Metalness-Head_Bake1_PBR_Roughness.png"
		}
	],
	"accessors":[
		{
			"bufferView":0,
			"componentType":5126,
			"count":12847,
			"max":[
				1.601087212562561,
				2.9556360244750977,
				2.2940847873687744
			],
			"min":[
				-1.600141167640686,
				-1.4165904521942139,
				-1.9880530834197998
			],
			"type":"VEC3"
		},
		{
			"bufferView":1,
			"componentType":5126,
			"count":12847,
			"type":"VEC3"
		},
		{
			"bufferView":2,
			"componentType":5126,
			"count":12847,
			"type":"VEC2"
		},
		{
			"bufferView":3,
			"componentType":5123,
			"count":46530,
			"type":"SCALAR"
		}
	],
	"bufferViews":[
		{
			"buffer":0,
			"byteLength":154164,
			"byteOffset":0,
			"target":34962
		},
		{
			"buffer":0,
			"byteLength":154164,
			"byteOffset":154164,
			"target":34962
		},
		{
			"buffer":0,
			"byteLength":102776,
			"byteOffset":308328,
			"target":34962
		},
		{
			"buffer":0,
			"byteLength":93060,
			"byteOffset":411104,
			"target":34963
		}
	],
	"samplers":[
		{
			"magFilter":9729,
			"minFilter":9987
		}
	],
	"buffers":[
		{
			"byteLength":504164,
			"uri":"Turret.bin"
		}
	]
}
